# xmcd CD database file
#
# Track frame offsets:
#	150
#	9109
#	20769
#	33588
#	45147
#	56039
#	69734
#	79768
#	93321
#	105125
#	117775
#	127943
#	143496
#	156803
#	167698
#	182075
#	193591
#	205608
#	216537
#	229503
#	240987
#	251072
#	262896
#	274793
#
# Disc length: 3803 seconds
#
# Revision: 0
# Processed by: cddbd v1.5.2PL0 Copyright (c) Steve Scherf et al.
# Submitted via: CDex 1.51
#
DISCID=340ed918
DTITLE=Jimmy Witherspoon - The Very Best of Jimmy Witherspoon - Miss Miss Mistreater
DYEAR=2004
DGENRE=Blues
TTITLE0=Foolish Prayer
TTITLE1=Lucille
TTITLE2=Blues In Trouble
TTITLE3=Two Little Girls
TTITLE4=One Fine Gal
TTITLE5=Don't Tell Me Now
TTITLE6=Corn Whiskey
TTITLE7=The Day Is Dawning
TTITLE8=Jay's Blues-Part 1
TTITLE9=Jay's Blues-Part 2
TTITLE10=Miss Miss Mistreater
TTITLE11=Back Home
TTITLE12=The Last Mile
TTITLE13=It
TTITLE14=Back Door Blues
TTITLE15=Fast Woman, Slow Gin
TTITLE16=24 Sad Hours
TTITLE17=Just For You
TTITLE18=Sad Life
TTITLE19=Move Me Baby
TTITLE20=I'm Not So Young
TTITLE21=Highway To Happiness
TTITLE22=I Done Told You
TTITLE23=Oh Boy
EXTD=YEAR: 2004
EXTT0=
EXTT1=
EXTT2=
EXTT3=
EXTT4=
EXTT5=
EXTT6=
EXTT7=
EXTT8=
EXTT9=
EXTT10=
EXTT11=
EXTT12=
EXTT13=
EXTT14=
EXTT15=
EXTT16=
EXTT17=
EXTT18=
EXTT19=
EXTT20=
EXTT21=
EXTT22=
EXTT23=
PLAYORDER=
